<mxfile host="app.diagrams.net" agent="Mozilla/5.0 (Windows NT 10.0; Win64; x64) AppleWebKit/537.36 (KHTML, like Gecko) Chrome/132.0.0.0 Safari/537.36" version="26.0.12">
  <diagram name="Page-1" id="03018318-947c-dd8e-b7a3-06fadd420f32">
    <mxGraphModel dx="629" dy="1742" grid="1" gridSize="10" guides="1" tooltips="1" connect="1" arrows="1" fold="1" page="1" pageScale="1" pageWidth="827" pageHeight="1169" background="#ffffff" math="0" shadow="0">
      <root>
        <mxCell id="0" />
        <mxCell id="1" parent="0" />
        <mxCell id="tw06mkd3tqOahKshNa1v-1" value="" style="rounded=0;whiteSpace=wrap;html=1;fillColor=light-dark(#ededed, #1a1a1a);strokeColor=default;fontColor=#333333;" parent="1" vertex="1">
          <mxGeometry x="440" y="-1070" width="380" height="243.75" as="geometry" />
        </mxCell>
        <mxCell id="tw06mkd3tqOahKshNa1v-2" value="" style="ellipse;whiteSpace=wrap;html=1;aspect=fixed;fillColor=light-dark(#76b84d, #ededed);gradientColor=none;strokeColor=none;" parent="1" vertex="1">
          <mxGeometry x="444.5" y="-1063.75" width="28.75" height="28.75" as="geometry" />
        </mxCell>
        <mxCell id="tw06mkd3tqOahKshNa1v-6" value="" style="rounded=1;whiteSpace=wrap;html=1;strokeColor=none;arcSize=36;" parent="1" vertex="1">
          <mxGeometry x="502.5" y="-1059.3799999999999" width="250" height="20" as="geometry" />
        </mxCell>
        <mxCell id="tw06mkd3tqOahKshNa1v-7" value="&lt;font&gt;Портфель проектов&lt;/font&gt;" style="text;html=1;align=center;verticalAlign=middle;whiteSpace=wrap;rounded=0;" parent="1" vertex="1">
          <mxGeometry x="555" y="-1063.75" width="145" height="30" as="geometry" />
        </mxCell>
        <mxCell id="tw06mkd3tqOahKshNa1v-138" value="" style="rounded=0;whiteSpace=wrap;html=1;fillColor=light-dark(#ededed, #ededed);strokeColor=default;fontColor=#333333;" parent="1" vertex="1">
          <mxGeometry x="447.5" y="-800" width="352.5" height="780" as="geometry" />
        </mxCell>
        <mxCell id="tw06mkd3tqOahKshNa1v-139" value="&lt;font style=&quot;font-size: 15px;&quot;&gt;Название проекта&lt;/font&gt;" style="text;html=1;align=center;verticalAlign=middle;whiteSpace=wrap;rounded=0;" parent="1" vertex="1">
          <mxGeometry x="452.5" y="-794" width="140" height="30" as="geometry" />
        </mxCell>
        <mxCell id="tw06mkd3tqOahKshNa1v-140" value="&lt;font style=&quot;font-size: 10px;&quot;&gt;Код проекта:&lt;/font&gt;" style="text;html=1;align=center;verticalAlign=middle;whiteSpace=wrap;rounded=0;" parent="1" vertex="1">
          <mxGeometry x="447.5" y="-750" width="85.75" height="20" as="geometry" />
        </mxCell>
        <mxCell id="tw06mkd3tqOahKshNa1v-141" value="&lt;font style=&quot;font-size: 10px;&quot;&gt;Статус:&lt;/font&gt;" style="text;html=1;align=center;verticalAlign=middle;whiteSpace=wrap;rounded=0;" parent="1" vertex="1">
          <mxGeometry x="450.5" y="-730" width="55" height="20" as="geometry" />
        </mxCell>
        <mxCell id="tw06mkd3tqOahKshNa1v-171" value="&lt;h1 style=&quot;margin-top: 0px;&quot;&gt;&lt;font style=&quot;font-size: 8px; line-height: 0%;&quot;&gt;&lt;span style=&quot;background-color: transparent; color: light-dark(rgb(0, 0, 0), rgb(255, 255, 255)); font-weight: normal;&quot;&gt;Lorem ipsum dolor sit amet, consectetur adipisicing elit, sed do eiusmod tempor incididunt ut.&amp;nbsp;&lt;/span&gt;&lt;/font&gt;&lt;/h1&gt;" style="text;html=1;whiteSpace=wrap;overflow=hidden;rounded=0;" parent="1" vertex="1">
          <mxGeometry x="453.75" y="-530" width="347.5" height="30" as="geometry" />
        </mxCell>
        <mxCell id="-qQDDxXLlnVFa6KjaKgR-14" value="&lt;font style=&quot;font-size: 20px;&quot;&gt;Главная страница&lt;/font&gt;" style="text;html=1;align=center;verticalAlign=middle;whiteSpace=wrap;rounded=0;" parent="1" vertex="1">
          <mxGeometry x="415.24" y="-1100" width="220" height="30" as="geometry" />
        </mxCell>
        <mxCell id="yqN4PnU-bIK_DVFbYcEo-104" value="" style="endArrow=none;html=1;rounded=0;" parent="1" edge="1">
          <mxGeometry width="50" height="50" relative="1" as="geometry">
            <mxPoint x="447.5" y="-690" as="sourcePoint" />
            <mxPoint x="777.5530769230769" y="-691.28" as="targetPoint" />
            <Array as="points">
              <mxPoint x="790.63" y="-691.28" />
            </Array>
          </mxGeometry>
        </mxCell>
        <mxCell id="yqN4PnU-bIK_DVFbYcEo-153" value="&lt;font style=&quot;font-size: 20px;&quot;&gt;Сетевой график&lt;/font&gt;" style="text;html=1;align=center;verticalAlign=middle;whiteSpace=wrap;rounded=0;" parent="1" vertex="1">
          <mxGeometry x="32.5" y="-1130" width="160" height="30" as="geometry" />
        </mxCell>
        <mxCell id="yqN4PnU-bIK_DVFbYcEo-174" value="" style="rounded=0;whiteSpace=wrap;html=1;fillColor=light-dark(#ededed, #1a1a1a);strokeColor=#666666;fontColor=#333333;" parent="1" vertex="1">
          <mxGeometry x="37.5" y="-1100" width="372.5" height="220" as="geometry" />
        </mxCell>
        <mxCell id="yqN4PnU-bIK_DVFbYcEo-217" value="&lt;font style=&quot;font-size: 10px;&quot;&gt;0&lt;/font&gt;" style="ellipse;whiteSpace=wrap;html=1;aspect=fixed;fillColor=light-dark(#75bb4e, #1f2f1e);strokeColor=light-dark(#030303, #446e2c);" parent="1" vertex="1">
          <mxGeometry x="41.06" y="-982.5" width="30" height="30" as="geometry" />
        </mxCell>
        <mxCell id="yqN4PnU-bIK_DVFbYcEo-218" value="&lt;font style=&quot;font-size: 10px;&quot;&gt;3&lt;/font&gt;" style="ellipse;whiteSpace=wrap;html=1;aspect=fixed;fillColor=light-dark(#75bb4e, #ededed);" parent="1" vertex="1">
          <mxGeometry x="107.88000000000001" y="-933.75" width="30" height="30" as="geometry" />
        </mxCell>
        <mxCell id="yqN4PnU-bIK_DVFbYcEo-219" value="&lt;font style=&quot;font-size: 10px;&quot;&gt;2&lt;/font&gt;" style="ellipse;whiteSpace=wrap;html=1;aspect=fixed;fillColor=light-dark(#75bb4e, #ededed);" parent="1" vertex="1">
          <mxGeometry x="102.88" y="-1030" width="35" height="35" as="geometry" />
        </mxCell>
        <mxCell id="yqN4PnU-bIK_DVFbYcEo-220" value="&lt;font style=&quot;font-size: 10px;&quot;&gt;1&lt;/font&gt;" style="ellipse;whiteSpace=wrap;html=1;aspect=fixed;fillColor=light-dark(#75bb4e, #ededed);" parent="1" vertex="1">
          <mxGeometry x="102.88" y="-1086.25" width="30" height="30" as="geometry" />
        </mxCell>
        <mxCell id="yqN4PnU-bIK_DVFbYcEo-221" value="&lt;font style=&quot;font-size: 10px;&quot;&gt;6&lt;/font&gt;" style="ellipse;whiteSpace=wrap;html=1;aspect=fixed;fillColor=#d5e8d4;strokeColor=#82b366;" parent="1" vertex="1">
          <mxGeometry x="207.88000000000002" y="-1020" width="30" height="30" as="geometry" />
        </mxCell>
        <mxCell id="yqN4PnU-bIK_DVFbYcEo-222" value="&lt;font style=&quot;font-size: 10px;&quot;&gt;4&lt;/font&gt;" style="ellipse;whiteSpace=wrap;html=1;aspect=fixed;fillColor=light-dark(#75bb4e, #ededed);" parent="1" vertex="1">
          <mxGeometry x="186.74" y="-933.75" width="30" height="30" as="geometry" />
        </mxCell>
        <mxCell id="yqN4PnU-bIK_DVFbYcEo-223" value="&lt;font style=&quot;font-size: 10px;&quot;&gt;5&lt;/font&gt;" style="ellipse;whiteSpace=wrap;html=1;aspect=fixed;fillColor=light-dark(#75bb4e, #ededed);" parent="1" vertex="1">
          <mxGeometry x="253.63" y="-977.5" width="30" height="30" as="geometry" />
        </mxCell>
        <mxCell id="yqN4PnU-bIK_DVFbYcEo-224" value="&lt;font style=&quot;font-size: 10px;&quot;&gt;7&lt;/font&gt;" style="ellipse;whiteSpace=wrap;html=1;aspect=fixed;fillColor=light-dark(#75bb4e, #ededed);" parent="1" vertex="1">
          <mxGeometry x="245.76" y="-1080" width="30" height="30" as="geometry" />
        </mxCell>
        <mxCell id="yqN4PnU-bIK_DVFbYcEo-225" value="" style="endArrow=classic;html=1;rounded=0;entryX=0;entryY=1;entryDx=0;entryDy=0;exitX=1;exitY=0;exitDx=0;exitDy=0;" parent="1" source="yqN4PnU-bIK_DVFbYcEo-217" target="yqN4PnU-bIK_DVFbYcEo-220" edge="1">
          <mxGeometry width="50" height="50" relative="1" as="geometry">
            <mxPoint x="-600" y="-510" as="sourcePoint" />
            <mxPoint x="-550" y="-560" as="targetPoint" />
          </mxGeometry>
        </mxCell>
        <mxCell id="yqN4PnU-bIK_DVFbYcEo-226" value="" style="endArrow=classic;html=1;rounded=0;entryX=0;entryY=0.5;entryDx=0;entryDy=0;exitX=1;exitY=0;exitDx=0;exitDy=0;" parent="1" source="yqN4PnU-bIK_DVFbYcEo-217" target="yqN4PnU-bIK_DVFbYcEo-219" edge="1">
          <mxGeometry width="50" height="50" relative="1" as="geometry">
            <mxPoint x="-597" y="-728" as="sourcePoint" />
            <mxPoint x="-488" y="-902" as="targetPoint" />
          </mxGeometry>
        </mxCell>
        <mxCell id="yqN4PnU-bIK_DVFbYcEo-227" value="" style="endArrow=classic;html=1;rounded=0;entryX=0;entryY=0;entryDx=0;entryDy=0;exitX=1;exitY=1;exitDx=0;exitDy=0;" parent="1" source="yqN4PnU-bIK_DVFbYcEo-217" target="yqN4PnU-bIK_DVFbYcEo-218" edge="1">
          <mxGeometry width="50" height="50" relative="1" as="geometry">
            <mxPoint x="-587" y="-718" as="sourcePoint" />
            <mxPoint x="-478" y="-892" as="targetPoint" />
          </mxGeometry>
        </mxCell>
        <mxCell id="yqN4PnU-bIK_DVFbYcEo-228" value="" style="endArrow=classic;html=1;rounded=0;entryX=0.063;entryY=0.379;entryDx=0;entryDy=0;entryPerimeter=0;exitX=0.958;exitY=0.713;exitDx=0;exitDy=0;exitPerimeter=0;" parent="1" source="yqN4PnU-bIK_DVFbYcEo-220" target="yqN4PnU-bIK_DVFbYcEo-221" edge="1">
          <mxGeometry width="50" height="50" relative="1" as="geometry">
            <mxPoint x="-420" y="-930" as="sourcePoint" />
            <mxPoint x="-468" y="-882" as="targetPoint" />
          </mxGeometry>
        </mxCell>
        <mxCell id="yqN4PnU-bIK_DVFbYcEo-230" value="" style="endArrow=classic;html=1;rounded=0;entryX=0;entryY=0.5;entryDx=0;entryDy=0;exitX=0.979;exitY=0.317;exitDx=0;exitDy=0;exitPerimeter=0;" parent="1" source="yqN4PnU-bIK_DVFbYcEo-220" target="yqN4PnU-bIK_DVFbYcEo-224" edge="1">
          <mxGeometry width="50" height="50" relative="1" as="geometry">
            <mxPoint x="-567" y="-698" as="sourcePoint" />
            <mxPoint x="-458" y="-872" as="targetPoint" />
          </mxGeometry>
        </mxCell>
        <mxCell id="yqN4PnU-bIK_DVFbYcEo-231" value="" style="endArrow=classic;html=1;rounded=0;entryX=0;entryY=0.5;entryDx=0;entryDy=0;exitX=0.93;exitY=0.693;exitDx=0;exitDy=0;exitPerimeter=0;" parent="1" source="yqN4PnU-bIK_DVFbYcEo-218" target="yqN4PnU-bIK_DVFbYcEo-222" edge="1">
          <mxGeometry width="50" height="50" relative="1" as="geometry">
            <mxPoint x="-336.5" y="-186" as="sourcePoint" />
            <mxPoint x="-227.5" y="-360" as="targetPoint" />
          </mxGeometry>
        </mxCell>
        <mxCell id="yqN4PnU-bIK_DVFbYcEo-232" value="" style="endArrow=classic;html=1;rounded=0;entryX=0;entryY=0;entryDx=0;entryDy=0;exitX=0.96;exitY=0.714;exitDx=0;exitDy=0;exitPerimeter=0;" parent="1" source="yqN4PnU-bIK_DVFbYcEo-219" target="yqN4PnU-bIK_DVFbYcEo-222" edge="1">
          <mxGeometry width="50" height="50" relative="1" as="geometry">
            <mxPoint x="-248.29000000000002" y="-646" as="sourcePoint" />
            <mxPoint x="-139.29000000000002" y="-820" as="targetPoint" />
            <Array as="points" />
          </mxGeometry>
        </mxCell>
        <mxCell id="yqN4PnU-bIK_DVFbYcEo-233" value="" style="endArrow=classic;html=1;rounded=0;entryX=0.352;entryY=0.924;entryDx=0;entryDy=0;entryPerimeter=0;" parent="1" source="yqN4PnU-bIK_DVFbYcEo-222" target="yqN4PnU-bIK_DVFbYcEo-221" edge="1">
          <mxGeometry width="50" height="50" relative="1" as="geometry">
            <mxPoint x="-215" y="-636" as="sourcePoint" />
            <mxPoint x="-106" y="-810" as="targetPoint" />
          </mxGeometry>
        </mxCell>
        <mxCell id="yqN4PnU-bIK_DVFbYcEo-234" value="" style="endArrow=classic;html=1;rounded=0;entryX=0;entryY=1;entryDx=0;entryDy=0;exitX=0.923;exitY=0.277;exitDx=0;exitDy=0;exitPerimeter=0;" parent="1" source="yqN4PnU-bIK_DVFbYcEo-222" target="yqN4PnU-bIK_DVFbYcEo-223" edge="1">
          <mxGeometry width="50" height="50" relative="1" as="geometry">
            <mxPoint x="-150" y="-296" as="sourcePoint" />
            <mxPoint x="-41" y="-470" as="targetPoint" />
          </mxGeometry>
        </mxCell>
        <mxCell id="yqN4PnU-bIK_DVFbYcEo-235" value="" style="endArrow=classic;html=1;rounded=0;entryX=1;entryY=1;entryDx=0;entryDy=0;" parent="1" source="yqN4PnU-bIK_DVFbYcEo-223" target="yqN4PnU-bIK_DVFbYcEo-221" edge="1">
          <mxGeometry width="50" height="50" relative="1" as="geometry">
            <mxPoint x="-9" y="-540" as="sourcePoint" />
            <mxPoint x="100" y="-714" as="targetPoint" />
          </mxGeometry>
        </mxCell>
        <mxCell id="yqN4PnU-bIK_DVFbYcEo-236" value="" style="endArrow=classic;html=1;rounded=0;entryX=0;entryY=1;entryDx=0;entryDy=0;exitX=1;exitY=0;exitDx=0;exitDy=0;" parent="1" source="yqN4PnU-bIK_DVFbYcEo-221" target="yqN4PnU-bIK_DVFbYcEo-224" edge="1">
          <mxGeometry width="50" height="50" relative="1" as="geometry">
            <mxPoint x="-104" y="-776" as="sourcePoint" />
            <mxPoint x="5" y="-950" as="targetPoint" />
          </mxGeometry>
        </mxCell>
        <mxCell id="yqN4PnU-bIK_DVFbYcEo-250" value="" style="rounded=1;whiteSpace=wrap;html=1;arcSize=4;strokeColor=none;fillColor=light-dark(#77b54c, #ededed);" parent="1" vertex="1">
          <mxGeometry x="446.87" y="-1010" width="80" height="50" as="geometry" />
        </mxCell>
        <mxCell id="yqN4PnU-bIK_DVFbYcEo-256" value="&lt;font style=&quot;line-height: 90%; font-size: 9px;&quot;&gt;Название&lt;/font&gt;&lt;div&gt;&lt;font style=&quot;line-height: 90%; font-size: 9px;&quot;&gt;проекта&lt;/font&gt;&lt;/div&gt;" style="text;html=1;align=left;verticalAlign=middle;whiteSpace=wrap;rounded=0;fontColor=#FFFFFF;" parent="1" vertex="1">
          <mxGeometry x="450.62" y="-1015" width="60" height="35" as="geometry" />
        </mxCell>
        <mxCell id="yqN4PnU-bIK_DVFbYcEo-281" value="" style="rounded=0;whiteSpace=wrap;html=1;fillColor=light-dark(#ededed, #1a1a1a);strokeColor=#666666;fontColor=#333333;" parent="1" vertex="1">
          <mxGeometry x="20" y="-794" width="400" height="284" as="geometry" />
        </mxCell>
        <mxCell id="yqN4PnU-bIK_DVFbYcEo-283" value="" style="rounded=1;whiteSpace=wrap;html=1;arcSize=7;strokeColor=none;fillColor=light-dark(#77b54c, #ededed);" parent="1" vertex="1">
          <mxGeometry x="447.38" y="-887.5" width="80" height="50" as="geometry" />
        </mxCell>
        <mxCell id="yqN4PnU-bIK_DVFbYcEo-284" value="&lt;font style=&quot;line-height: 90%; font-size: 9px;&quot;&gt;Название&lt;/font&gt;&lt;div&gt;&lt;font style=&quot;line-height: 90%; font-size: 9px;&quot;&gt;проекта&lt;/font&gt;&lt;/div&gt;" style="text;html=1;align=left;verticalAlign=middle;whiteSpace=wrap;rounded=0;fontColor=#FFFFFF;" parent="1" vertex="1">
          <mxGeometry x="448.54" y="-893.12" width="60" height="35" as="geometry" />
        </mxCell>
        <mxCell id="yqN4PnU-bIK_DVFbYcEo-285" value="" style="rounded=1;whiteSpace=wrap;html=1;arcSize=7;strokeColor=none;fillColor=light-dark(#77b54c, #ededed);" parent="1" vertex="1">
          <mxGeometry x="447.5" y="-948.75" width="80" height="50" as="geometry" />
        </mxCell>
        <mxCell id="yqN4PnU-bIK_DVFbYcEo-286" value="&lt;font style=&quot;line-height: 90%; font-size: 9px;&quot;&gt;Название&lt;/font&gt;&lt;div&gt;&lt;font style=&quot;line-height: 90%; font-size: 9px;&quot;&gt;проекта&lt;/font&gt;&lt;/div&gt;" style="text;html=1;align=left;verticalAlign=middle;whiteSpace=wrap;rounded=0;fontColor=#FFFFFF;" parent="1" vertex="1">
          <mxGeometry x="450.62" y="-952.5" width="60" height="35" as="geometry" />
        </mxCell>
        <mxCell id="yqN4PnU-bIK_DVFbYcEo-289" value="" style="rounded=1;whiteSpace=wrap;html=1;arcSize=7;strokeColor=none;fillColor=light-dark(#bf9955, #ededed);" parent="1" vertex="1">
          <mxGeometry x="540" y="-948.75" width="80" height="50" as="geometry" />
        </mxCell>
        <mxCell id="yqN4PnU-bIK_DVFbYcEo-290" value="&lt;font style=&quot;line-height: 90%; font-size: 9px;&quot;&gt;Название&lt;/font&gt;&lt;div&gt;&lt;font style=&quot;line-height: 90%; font-size: 9px;&quot;&gt;проекта&lt;/font&gt;&lt;/div&gt;" style="text;html=1;align=left;verticalAlign=middle;whiteSpace=wrap;rounded=0;fontColor=#FFFFFF;" parent="1" vertex="1">
          <mxGeometry x="543.12" y="-952.5" width="60" height="35" as="geometry" />
        </mxCell>
        <mxCell id="yqN4PnU-bIK_DVFbYcEo-291" value="" style="rounded=1;whiteSpace=wrap;html=1;arcSize=7;strokeColor=none;fillColor=light-dark(#77b54c, #ededed);" parent="1" vertex="1">
          <mxGeometry x="540" y="-1010" width="80" height="50" as="geometry" />
        </mxCell>
        <mxCell id="yqN4PnU-bIK_DVFbYcEo-292" value="&lt;font style=&quot;line-height: 90%; font-size: 9px;&quot;&gt;Название&lt;/font&gt;&lt;div&gt;&lt;font style=&quot;line-height: 90%; font-size: 9px;&quot;&gt;проекта&lt;/font&gt;&lt;/div&gt;" style="text;html=1;align=left;verticalAlign=middle;whiteSpace=wrap;rounded=0;fontColor=#FFFFFF;" parent="1" vertex="1">
          <mxGeometry x="544.25" y="-1015" width="60" height="35" as="geometry" />
        </mxCell>
        <mxCell id="yqN4PnU-bIK_DVFbYcEo-293" value="" style="rounded=1;whiteSpace=wrap;html=1;arcSize=7;strokeColor=none;fillColor=light-dark(#77b54c, #ededed);" parent="1" vertex="1">
          <mxGeometry x="630" y="-1010" width="80" height="50" as="geometry" />
        </mxCell>
        <mxCell id="yqN4PnU-bIK_DVFbYcEo-294" value="&lt;font style=&quot;line-height: 90%; font-size: 9px;&quot;&gt;Название&lt;/font&gt;&lt;div&gt;&lt;font style=&quot;line-height: 90%; font-size: 9px;&quot;&gt;проекта&lt;/font&gt;&lt;/div&gt;" style="text;html=1;align=left;verticalAlign=middle;whiteSpace=wrap;rounded=0;fontColor=#FFFFFF;" parent="1" vertex="1">
          <mxGeometry x="632.55" y="-1015" width="60" height="35" as="geometry" />
        </mxCell>
        <mxCell id="yqN4PnU-bIK_DVFbYcEo-295" value="" style="rounded=1;whiteSpace=wrap;html=1;arcSize=7;strokeColor=none;fillColor=light-dark(#77b54c, #ededed);" parent="1" vertex="1">
          <mxGeometry x="720" y="-1010" width="80" height="50" as="geometry" />
        </mxCell>
        <mxCell id="yqN4PnU-bIK_DVFbYcEo-296" value="&lt;font style=&quot;line-height: 90%; font-size: 9px;&quot;&gt;Название&lt;/font&gt;&lt;div&gt;&lt;font style=&quot;line-height: 90%; font-size: 9px;&quot;&gt;проекта&lt;/font&gt;&lt;/div&gt;" style="text;html=1;align=left;verticalAlign=middle;whiteSpace=wrap;rounded=0;fontColor=#FFFFFF;" parent="1" vertex="1">
          <mxGeometry x="723.12" y="-1015" width="60" height="35" as="geometry" />
        </mxCell>
        <mxCell id="yqN4PnU-bIK_DVFbYcEo-297" value="" style="rounded=1;whiteSpace=wrap;html=1;arcSize=7;strokeColor=none;fillColor=light-dark(#77b54c, #ededed);" parent="1" vertex="1">
          <mxGeometry x="630" y="-948.75" width="80" height="50" as="geometry" />
        </mxCell>
        <mxCell id="yqN4PnU-bIK_DVFbYcEo-298" value="&lt;font style=&quot;line-height: 90%; font-size: 9px;&quot;&gt;Название&lt;/font&gt;&lt;div&gt;&lt;font style=&quot;line-height: 90%; font-size: 9px;&quot;&gt;проекта&lt;/font&gt;&lt;/div&gt;" style="text;html=1;align=left;verticalAlign=middle;whiteSpace=wrap;rounded=0;fontColor=#FFFFFF;" parent="1" vertex="1">
          <mxGeometry x="633.12" y="-954.38" width="60" height="35" as="geometry" />
        </mxCell>
        <mxCell id="yqN4PnU-bIK_DVFbYcEo-299" value="" style="rounded=1;whiteSpace=wrap;html=1;arcSize=7;strokeColor=none;fillColor=light-dark(#c49653, #ededed);" parent="1" vertex="1">
          <mxGeometry x="720" y="-948.75" width="80" height="50" as="geometry" />
        </mxCell>
        <mxCell id="yqN4PnU-bIK_DVFbYcEo-300" value="&lt;font style=&quot;line-height: 90%; font-size: 9px;&quot;&gt;Название&lt;/font&gt;&lt;div&gt;&lt;font style=&quot;line-height: 90%; font-size: 9px;&quot;&gt;проекта&lt;/font&gt;&lt;/div&gt;" style="text;html=1;align=left;verticalAlign=middle;whiteSpace=wrap;rounded=0;fontColor=#FFFFFF;fillColor=light-dark(#c49653, #ededed);" parent="1" vertex="1">
          <mxGeometry x="723.12" y="-943.75" width="60" height="13.75" as="geometry" />
        </mxCell>
        <mxCell id="yqN4PnU-bIK_DVFbYcEo-301" value="&lt;font&gt;Описание&lt;/font&gt;" style="text;html=1;align=center;verticalAlign=middle;whiteSpace=wrap;rounded=0;" parent="1" vertex="1">
          <mxGeometry x="444" y="-690" width="85.75" height="20" as="geometry" />
        </mxCell>
        <mxCell id="yqN4PnU-bIK_DVFbYcEo-302" value="&lt;font style=&quot;font-size: 10px;&quot;&gt;Ответственные:&lt;/font&gt;" style="text;html=1;align=center;verticalAlign=middle;whiteSpace=wrap;rounded=0;" parent="1" vertex="1">
          <mxGeometry x="450" y="-650" width="85.75" height="20" as="geometry" />
        </mxCell>
        <mxCell id="yqN4PnU-bIK_DVFbYcEo-303" value="&lt;font style=&quot;font-size: 10px;&quot;&gt;Участники:&lt;/font&gt;" style="text;html=1;align=center;verticalAlign=middle;whiteSpace=wrap;rounded=0;" parent="1" vertex="1">
          <mxGeometry x="451.25" y="-632" width="62.62" height="20" as="geometry" />
        </mxCell>
        <mxCell id="yqN4PnU-bIK_DVFbYcEo-304" value="&lt;font style=&quot;font-size: 10px;&quot;&gt;Плановая дата начала:&lt;/font&gt;" style="text;html=1;align=center;verticalAlign=middle;whiteSpace=wrap;rounded=0;" parent="1" vertex="1">
          <mxGeometry x="454.27" y="-614" width="112.5" height="20" as="geometry" />
        </mxCell>
        <mxCell id="yqN4PnU-bIK_DVFbYcEo-305" value="&lt;font style=&quot;font-size: 10px;&quot;&gt;Плановая дата окончания:&lt;/font&gt;" style="text;html=1;align=center;verticalAlign=middle;whiteSpace=wrap;rounded=0;" parent="1" vertex="1">
          <mxGeometry x="451.25" y="-590" width="135" height="20" as="geometry" />
        </mxCell>
        <mxCell id="yqN4PnU-bIK_DVFbYcEo-306" value="&lt;font style=&quot;font-size: 9px;&quot;&gt;Фактическая дата начала:&lt;/font&gt;" style="text;html=1;align=center;verticalAlign=middle;whiteSpace=wrap;rounded=0;" parent="1" vertex="1">
          <mxGeometry x="488.13" y="-570" width="120" height="20" as="geometry" />
        </mxCell>
        <mxCell id="yqN4PnU-bIK_DVFbYcEo-307" value="&lt;font style=&quot;font-size: 9px;&quot;&gt;Фактическая дата окончания:&lt;/font&gt;" style="text;html=1;align=center;verticalAlign=middle;whiteSpace=wrap;rounded=0;" parent="1" vertex="1">
          <mxGeometry x="475.63" y="-550" width="157.5" height="20" as="geometry" />
        </mxCell>
        <mxCell id="yqN4PnU-bIK_DVFbYcEo-308" value="" style="endArrow=none;html=1;rounded=0;" parent="1" edge="1">
          <mxGeometry width="50" height="50" relative="1" as="geometry">
            <mxPoint x="446.87" y="-488.72" as="sourcePoint" />
            <mxPoint x="776.9230769230769" y="-490" as="targetPoint" />
            <Array as="points">
              <mxPoint x="790" y="-490" />
            </Array>
          </mxGeometry>
        </mxCell>
        <mxCell id="yqN4PnU-bIK_DVFbYcEo-309" value="&lt;font&gt;Прогресс-бар&lt;/font&gt;" style="text;html=1;align=center;verticalAlign=middle;whiteSpace=wrap;rounded=0;" parent="1" vertex="1">
          <mxGeometry x="452.5" y="-480" width="85.75" height="20" as="geometry" />
        </mxCell>
        <mxCell id="yqN4PnU-bIK_DVFbYcEo-310" value="" style="ellipse;whiteSpace=wrap;html=1;aspect=fixed;fillColor=light-dark(#76b84d, #ededed);gradientColor=none;strokeColor=none;" parent="1" vertex="1">
          <mxGeometry x="780" y="-1065.63" width="28.75" height="28.75" as="geometry" />
        </mxCell>
        <mxCell id="yqN4PnU-bIK_DVFbYcEo-312" value="&lt;font style=&quot;font-size: 7px;&quot;&gt;ФИО&lt;/font&gt;" style="text;html=1;align=center;verticalAlign=middle;whiteSpace=wrap;rounded=0;" parent="1" vertex="1">
          <mxGeometry x="746.75" y="-1056.25" width="43.25" height="6.25" as="geometry" />
        </mxCell>
        <mxCell id="tw06mkd3tqOahKshNa1v-73" value="" style="rounded=1;whiteSpace=wrap;html=1;strokeColor=none;fillColor=light-dark(#f4ddbd, #1f2f1e);arcSize=50;align=center;" parent="1" vertex="1">
          <mxGeometry x="450.5" y="-970" width="27.5" height="8.75" as="geometry" />
        </mxCell>
        <mxCell id="yqN4PnU-bIK_DVFbYcEo-313" value="" style="rounded=1;whiteSpace=wrap;html=1;arcSize=50;strokeColor=none;fillColor=light-dark(#bf9955, #ededed);" parent="1" vertex="1">
          <mxGeometry x="447.5" y="-1030" width="80" height="10" as="geometry" />
        </mxCell>
        <mxCell id="yqN4PnU-bIK_DVFbYcEo-314" value="" style="rounded=1;whiteSpace=wrap;html=1;arcSize=50;strokeColor=none;fillColor=light-dark(#76b84d, #ededed);" parent="1" vertex="1">
          <mxGeometry x="540" y="-1030" width="80" height="10" as="geometry" />
        </mxCell>
        <mxCell id="yqN4PnU-bIK_DVFbYcEo-316" value="&lt;font style=&quot;font-size: 7px;&quot;&gt;Инвестиционные&lt;/font&gt;" style="text;html=1;align=left;verticalAlign=middle;whiteSpace=wrap;rounded=0;fontColor=#FFFFFF;" parent="1" vertex="1">
          <mxGeometry x="457.5" y="-1035" width="62.5" height="17.5" as="geometry" />
        </mxCell>
        <mxCell id="yqN4PnU-bIK_DVFbYcEo-317" value="&lt;font style=&quot;font-size: 5px;&quot;&gt;Создан&lt;/font&gt;" style="text;html=1;align=center;verticalAlign=middle;whiteSpace=wrap;rounded=0;" parent="1" vertex="1">
          <mxGeometry x="454.18" y="-972.5" width="20.13" height="10" as="geometry" />
        </mxCell>
        <mxCell id="yqN4PnU-bIK_DVFbYcEo-318" value="" style="rounded=1;whiteSpace=wrap;html=1;strokeColor=none;fillColor=light-dark(#FFCCCC,#1F2F1E);arcSize=50;" parent="1" vertex="1">
          <mxGeometry x="480" y="-970" width="43.13" height="8.75" as="geometry" />
        </mxCell>
        <mxCell id="yqN4PnU-bIK_DVFbYcEo-319" value="" style="rounded=0;whiteSpace=wrap;html=1;strokeColor=light-dark(#d7d7d7, #ededed);fillColor=light-dark(#e3e3e3, #ededed);" parent="1" vertex="1">
          <mxGeometry x="811.25" y="-1070" width="8.75" height="243.75" as="geometry" />
        </mxCell>
        <mxCell id="yqN4PnU-bIK_DVFbYcEo-320" value="" style="rounded=0;whiteSpace=wrap;html=1;strokeColor=none;fillColor=light-dark(#FFFFFF,#EDEDED);" parent="1" vertex="1">
          <mxGeometry x="811.25" y="-1050" width="8.75" height="40" as="geometry" />
        </mxCell>
        <mxCell id="yqN4PnU-bIK_DVFbYcEo-321" value="" style="rounded=1;whiteSpace=wrap;html=1;strokeColor=none;fillColor=light-dark(#fccccd, #1f2f1e);arcSize=50;" parent="1" vertex="1">
          <mxGeometry x="450" y="-921.87" width="49.5" height="8.75" as="geometry" />
        </mxCell>
        <mxCell id="yqN4PnU-bIK_DVFbYcEo-322" value="" style="rounded=1;whiteSpace=wrap;html=1;strokeColor=none;fillColor=#e1d5e7;arcSize=50;" parent="1" vertex="1">
          <mxGeometry x="450" y="-910" width="73.63" height="8.75" as="geometry" />
        </mxCell>
        <mxCell id="yqN4PnU-bIK_DVFbYcEo-323" value="" style="rounded=1;whiteSpace=wrap;html=1;strokeColor=none;fillColor=#dae8fc;arcSize=50;" parent="1" vertex="1">
          <mxGeometry x="542.5" y="-910" width="27.5" height="8.75" as="geometry" />
        </mxCell>
        <mxCell id="yqN4PnU-bIK_DVFbYcEo-324" value="" style="rounded=1;whiteSpace=wrap;html=1;strokeColor=none;fillColor=light-dark(#fccccd, #1f2f1e);arcSize=50;" parent="1" vertex="1">
          <mxGeometry x="574.93" y="-910" width="43.13" height="8.75" as="geometry" />
        </mxCell>
        <mxCell id="yqN4PnU-bIK_DVFbYcEo-325" value="" style="rounded=1;whiteSpace=wrap;html=1;strokeColor=none;fillColor=light-dark(#baa2d2, #1f2f1e);arcSize=50;" parent="1" vertex="1">
          <mxGeometry x="544.25" y="-980" width="45.75" height="8.75" as="geometry" />
        </mxCell>
        <mxCell id="yqN4PnU-bIK_DVFbYcEo-326" value="" style="rounded=1;whiteSpace=wrap;html=1;strokeColor=none;fillColor=light-dark(#e1d4e7, #1f2f1e);arcSize=50;" parent="1" vertex="1">
          <mxGeometry x="544.25" y="-970" width="68.06" height="8.75" as="geometry" />
        </mxCell>
        <mxCell id="yqN4PnU-bIK_DVFbYcEo-327" value="" style="rounded=1;whiteSpace=wrap;html=1;strokeColor=none;fillColor=light-dark(#dde7fc, #1f2f1e);arcSize=50;" parent="1" vertex="1">
          <mxGeometry x="450" y="-850" width="27.5" height="10" as="geometry" />
        </mxCell>
        <mxCell id="yqN4PnU-bIK_DVFbYcEo-328" value="" style="rounded=1;whiteSpace=wrap;html=1;strokeColor=none;fillColor=light-dark(#f9ccce, #1f2f1e);arcSize=50;" parent="1" vertex="1">
          <mxGeometry x="480.5" y="-850" width="43.13" height="10" as="geometry" />
        </mxCell>
        <mxCell id="yqN4PnU-bIK_DVFbYcEo-331" value="" style="rounded=1;whiteSpace=wrap;html=1;strokeColor=none;fillColor=light-dark(#a95151, #1f2f1e);arcSize=50;" parent="1" vertex="1">
          <mxGeometry x="632.55" y="-981.25" width="37.45" height="8.75" as="geometry" />
        </mxCell>
        <mxCell id="yqN4PnU-bIK_DVFbYcEo-332" value="" style="rounded=1;whiteSpace=wrap;html=1;strokeColor=none;fillColor=light-dark(#ecbc79, #1f2f1e);arcSize=50;" parent="1" vertex="1">
          <mxGeometry x="632.55" y="-970" width="65.75" height="8.75" as="geometry" />
        </mxCell>
        <mxCell id="yqN4PnU-bIK_DVFbYcEo-333" value="" style="rounded=1;whiteSpace=wrap;html=1;strokeColor=none;fillColor=light-dark(#79a7d2, #1f2f1e);arcSize=50;" parent="1" vertex="1">
          <mxGeometry x="633.12" y="-910" width="27.5" height="8.75" as="geometry" />
        </mxCell>
        <mxCell id="yqN4PnU-bIK_DVFbYcEo-334" value="" style="rounded=1;whiteSpace=wrap;html=1;strokeColor=none;fillColor=light-dark(#e6bf7b, #1f2f1e);arcSize=50;" parent="1" vertex="1">
          <mxGeometry x="662.62" y="-910" width="43.13" height="8.75" as="geometry" />
        </mxCell>
        <mxCell id="yqN4PnU-bIK_DVFbYcEo-336" value="" style="rounded=1;whiteSpace=wrap;html=1;strokeColor=none;fillColor=light-dark(#e1d3e7, #1f2f1e);arcSize=50;" parent="1" vertex="1">
          <mxGeometry x="723.12" y="-970" width="66.32" height="8.75" as="geometry" />
        </mxCell>
        <mxCell id="yqN4PnU-bIK_DVFbYcEo-337" value="" style="rounded=1;whiteSpace=wrap;html=1;strokeColor=none;fillColor=light-dark(#82a4d1, #1f2f1e);arcSize=50;" parent="1" vertex="1">
          <mxGeometry x="723.12" y="-910" width="27.5" height="8.75" as="geometry" />
        </mxCell>
        <mxCell id="yqN4PnU-bIK_DVFbYcEo-338" value="" style="rounded=1;whiteSpace=wrap;html=1;strokeColor=none;fillColor=light-dark(#e1d3e7, #1f2f1e);arcSize=50;" parent="1" vertex="1">
          <mxGeometry x="752.62" y="-910" width="43.13" height="8.75" as="geometry" />
        </mxCell>
        <mxCell id="yqN4PnU-bIK_DVFbYcEo-339" value="" style="rounded=1;whiteSpace=wrap;html=1;strokeColor=none;fillColor=light-dark(#76b84d, #ededed);" parent="1" vertex="1">
          <mxGeometry x="770" y="-855" width="30" height="23.75" as="geometry" />
        </mxCell>
        <mxCell id="yqN4PnU-bIK_DVFbYcEo-343" value="" style="rounded=0;whiteSpace=wrap;html=1;fillColor=none;" parent="1" vertex="1">
          <mxGeometry x="40" y="-794" width="100" height="284" as="geometry" />
        </mxCell>
        <mxCell id="yqN4PnU-bIK_DVFbYcEo-346" value="" style="rounded=0;whiteSpace=wrap;html=1;fillColor=none;" parent="1" vertex="1">
          <mxGeometry x="230" y="-794" width="90" height="284" as="geometry" />
        </mxCell>
        <mxCell id="yqN4PnU-bIK_DVFbYcEo-348" value="" style="endArrow=none;html=1;rounded=0;exitX=0.998;exitY=0.189;exitDx=0;exitDy=0;exitPerimeter=0;entryX=1.006;entryY=0.134;entryDx=0;entryDy=0;entryPerimeter=0;" parent="1" source="yqN4PnU-bIK_DVFbYcEo-376" edge="1">
          <mxGeometry width="50" height="50" relative="1" as="geometry">
            <mxPoint x="142.12999999999997" y="-740.004" as="sourcePoint" />
            <mxPoint x="412.11999999999995" y="-740.004" as="targetPoint" />
          </mxGeometry>
        </mxCell>
        <mxCell id="yqN4PnU-bIK_DVFbYcEo-349" value="" style="endArrow=none;html=1;rounded=0;exitX=-0.003;exitY=0.332;exitDx=0;exitDy=0;exitPerimeter=0;entryX=1.006;entryY=0.134;entryDx=0;entryDy=0;entryPerimeter=0;" parent="1" edge="1">
          <mxGeometry width="50" height="50" relative="1" as="geometry">
            <mxPoint x="41.05999999999999" y="-679.7120000000001" as="sourcePoint" />
            <mxPoint x="410" y="-680" as="targetPoint" />
          </mxGeometry>
        </mxCell>
        <mxCell id="yqN4PnU-bIK_DVFbYcEo-350" value="" style="endArrow=none;html=1;rounded=0;exitX=0;exitY=0.75;exitDx=0;exitDy=0;entryX=1;entryY=0.75;entryDx=0;entryDy=0;" parent="1" edge="1">
          <mxGeometry width="50" height="50" relative="1" as="geometry">
            <mxPoint x="40" y="-570" as="sourcePoint" />
            <mxPoint x="410" y="-570" as="targetPoint" />
          </mxGeometry>
        </mxCell>
        <mxCell id="yqN4PnU-bIK_DVFbYcEo-354" value="&lt;font style=&quot;font-size: 10px;&quot;&gt;ПРОВЕРКА&lt;/font&gt;" style="text;html=1;align=center;verticalAlign=middle;whiteSpace=wrap;rounded=0;" parent="1" vertex="1">
          <mxGeometry x="230.01" y="-773.75" width="85.75" height="20" as="geometry" />
        </mxCell>
        <mxCell id="yqN4PnU-bIK_DVFbYcEo-356" value="&lt;font style=&quot;font-size: 10px;&quot;&gt;ПЛАН&lt;/font&gt;" style="text;html=1;align=center;verticalAlign=middle;whiteSpace=wrap;rounded=0;" parent="1" vertex="1">
          <mxGeometry x="47.129999999999995" y="-773.75" width="85.75" height="20" as="geometry" />
        </mxCell>
        <mxCell id="yqN4PnU-bIK_DVFbYcEo-357" value="&lt;font style=&quot;font-size: 9px;&quot;&gt;K A N B A N&lt;/font&gt;" style="text;html=1;align=center;verticalAlign=middle;whiteSpace=wrap;rounded=0;rotation=-90;" parent="1" vertex="1">
          <mxGeometry x="-14.690000000000001" y="-660" width="85.75" height="20" as="geometry" />
        </mxCell>
        <mxCell id="yqN4PnU-bIK_DVFbYcEo-358" value="" style="rounded=1;whiteSpace=wrap;html=1;fillColor=#d5e8d4;strokeColor=#82b366;" parent="1" vertex="1">
          <mxGeometry x="62.31" y="-730" width="70" height="40" as="geometry" />
        </mxCell>
        <mxCell id="yqN4PnU-bIK_DVFbYcEo-359" value="" style="rounded=1;whiteSpace=wrap;html=1;fillColor=light-dark(#c0d9bf, #1f2f1e);strokeColor=#82b366;" parent="1" vertex="1">
          <mxGeometry x="150" y="-672" width="70" height="40" as="geometry" />
        </mxCell>
        <mxCell id="yqN4PnU-bIK_DVFbYcEo-360" value="" style="rounded=1;whiteSpace=wrap;html=1;fillColor=light-dark(#c0dabf, #1f2f1e);strokeColor=#82b366;" parent="1" vertex="1">
          <mxGeometry x="150" y="-624" width="70" height="40" as="geometry" />
        </mxCell>
        <mxCell id="yqN4PnU-bIK_DVFbYcEo-361" value="" style="rounded=1;whiteSpace=wrap;html=1;fillColor=light-dark(#bad5b9, #1f2f1e);strokeColor=#82b366;" parent="1" vertex="1">
          <mxGeometry x="237.88" y="-560" width="70" height="40" as="geometry" />
        </mxCell>
        <mxCell id="yqN4PnU-bIK_DVFbYcEo-362" value="" style="rounded=1;whiteSpace=wrap;html=1;fillColor=light-dark(#a3c4a1, #1f2f1e);strokeColor=#82b366;" parent="1" vertex="1">
          <mxGeometry x="329.5" y="-560" width="70" height="40" as="geometry" />
        </mxCell>
        <mxCell id="yqN4PnU-bIK_DVFbYcEo-363" value="" style="rounded=1;whiteSpace=wrap;html=1;fillColor=light-dark(#a3c6a1, #1f2f1e);strokeColor=#82b366;" parent="1" vertex="1">
          <mxGeometry x="330" y="-730" width="70" height="40" as="geometry" />
        </mxCell>
        <mxCell id="yqN4PnU-bIK_DVFbYcEo-364" value="&lt;font style=&quot;font-size: 5px;&quot;&gt;высокий приоритет&lt;/font&gt;" style="text;html=1;align=center;verticalAlign=middle;whiteSpace=wrap;rounded=0;rotation=-90;" parent="1" vertex="1">
          <mxGeometry x="19.999999999999996" y="-720" width="51.06" height="20" as="geometry" />
        </mxCell>
        <mxCell id="yqN4PnU-bIK_DVFbYcEo-365" value="&lt;font style=&quot;font-size: 5px;&quot;&gt;средний приоритет&lt;/font&gt;" style="text;html=1;align=center;verticalAlign=middle;whiteSpace=wrap;rounded=0;rotation=-90;" parent="1" vertex="1">
          <mxGeometry x="19.999999999999996" y="-640" width="51.06" height="20" as="geometry" />
        </mxCell>
        <mxCell id="yqN4PnU-bIK_DVFbYcEo-366" value="&lt;font style=&quot;font-size: 5px;&quot;&gt;низкий приоритет&lt;/font&gt;" style="text;html=1;align=center;verticalAlign=middle;whiteSpace=wrap;rounded=0;rotation=-90;" parent="1" vertex="1">
          <mxGeometry x="19.999999999999996" y="-550" width="51.06" height="20" as="geometry" />
        </mxCell>
        <mxCell id="yqN4PnU-bIK_DVFbYcEo-368" value="&lt;font style=&quot;font-size: 10px;&quot;&gt;Таск 1&lt;/font&gt;" style="text;html=1;align=center;verticalAlign=middle;whiteSpace=wrap;rounded=0;" parent="1" vertex="1">
          <mxGeometry x="60.88" y="-730" width="45.75" height="20" as="geometry" />
        </mxCell>
        <mxCell id="yqN4PnU-bIK_DVFbYcEo-369" value="&lt;font style=&quot;font-size: 10px;&quot;&gt;Таск 2&lt;/font&gt;" style="text;html=1;align=center;verticalAlign=middle;whiteSpace=wrap;rounded=0;" parent="1" vertex="1">
          <mxGeometry x="146.75" y="-672" width="45.75" height="20" as="geometry" />
        </mxCell>
        <mxCell id="yqN4PnU-bIK_DVFbYcEo-370" value="&lt;font style=&quot;font-size: 10px;&quot;&gt;Таск 3&lt;/font&gt;" style="text;html=1;align=center;verticalAlign=middle;whiteSpace=wrap;rounded=0;" parent="1" vertex="1">
          <mxGeometry x="146.75" y="-624" width="45.75" height="20" as="geometry" />
        </mxCell>
        <mxCell id="yqN4PnU-bIK_DVFbYcEo-371" value="&lt;font style=&quot;font-size: 10px;&quot;&gt;Таск 4&lt;/font&gt;" style="text;html=1;align=center;verticalAlign=middle;whiteSpace=wrap;rounded=0;" parent="1" vertex="1">
          <mxGeometry x="230.01" y="-560" width="45.75" height="20" as="geometry" />
        </mxCell>
        <mxCell id="yqN4PnU-bIK_DVFbYcEo-372" value="&lt;font style=&quot;font-size: 10px;&quot;&gt;Таск 5&lt;/font&gt;" style="text;html=1;align=center;verticalAlign=middle;whiteSpace=wrap;rounded=0;" parent="1" vertex="1">
          <mxGeometry x="327.88" y="-732.5" width="42.12" height="25" as="geometry" />
        </mxCell>
        <mxCell id="yqN4PnU-bIK_DVFbYcEo-373" value="&lt;font style=&quot;font-size: 10px;&quot;&gt;Таск 6&lt;/font&gt;" style="text;html=1;align=center;verticalAlign=middle;whiteSpace=wrap;rounded=0;" parent="1" vertex="1">
          <mxGeometry x="327.88" y="-560" width="45.75" height="20" as="geometry" />
        </mxCell>
        <mxCell id="yqN4PnU-bIK_DVFbYcEo-374" value="&lt;font style=&quot;font-size: 20px;&quot;&gt;Kanban доска&lt;/font&gt;" style="text;html=1;align=center;verticalAlign=middle;whiteSpace=wrap;rounded=0;" parent="1" vertex="1">
          <mxGeometry x="12.5" y="-823.75" width="142.5" height="30" as="geometry" />
        </mxCell>
        <mxCell id="yqN4PnU-bIK_DVFbYcEo-379" value="" style="rounded=1;whiteSpace=wrap;html=1;fillColor=light-dark(#76b84d, #ededed);strokeColor=none;" parent="1" vertex="1">
          <mxGeometry x="460" y="-760" width="82.5" height="10" as="geometry" />
        </mxCell>
        <mxCell id="yqN4PnU-bIK_DVFbYcEo-380" value="&lt;font style=&quot;font-size: 7px;&quot;&gt;kanban доска&lt;/font&gt;" style="text;html=1;align=left;verticalAlign=middle;whiteSpace=wrap;rounded=0;fontColor=#FFFFFF;" parent="1" vertex="1">
          <mxGeometry x="475.63" y="-769" width="64.37" height="23.75" as="geometry" />
        </mxCell>
        <mxCell id="yqN4PnU-bIK_DVFbYcEo-381" value="" style="shape=cross;whiteSpace=wrap;html=1;rotation=45;strokeColor=none;fillColor=light-dark(#75bb4e, #ededed);" parent="1" vertex="1">
          <mxGeometry x="753.3799999999999" y="-794" width="30" height="30" as="geometry" />
        </mxCell>
        <mxCell id="yqN4PnU-bIK_DVFbYcEo-382" value="" style="rounded=1;whiteSpace=wrap;html=1;strokeColor=none;" parent="1" vertex="1">
          <mxGeometry x="527.5" y="-684" width="22.5" height="12" as="geometry" />
        </mxCell>
        <mxCell id="yqN4PnU-bIK_DVFbYcEo-383" value="" style="triangle;whiteSpace=wrap;html=1;rotation=90;fillColor=light-dark(#bababa, #ededed);strokeColor=none;" parent="1" vertex="1">
          <mxGeometry x="538.25" y="-682" width="3.25" height="10" as="geometry" />
        </mxCell>
        <mxCell id="yqN4PnU-bIK_DVFbYcEo-384" value="" style="rounded=1;whiteSpace=wrap;html=1;strokeColor=none;" parent="1" vertex="1">
          <mxGeometry x="543.12" y="-476" width="22.5" height="12" as="geometry" />
        </mxCell>
        <mxCell id="yqN4PnU-bIK_DVFbYcEo-385" value="" style="triangle;whiteSpace=wrap;html=1;rotation=90;fillColor=light-dark(#bababa, #ededed);strokeColor=none;" parent="1" vertex="1">
          <mxGeometry x="553" y="-475" width="3.25" height="10" as="geometry" />
        </mxCell>
        <mxCell id="yqN4PnU-bIK_DVFbYcEo-386" value="&lt;font style=&quot;font-size: 9px;&quot;&gt;Отклонение от срока:&lt;/font&gt;" style="text;html=1;align=center;verticalAlign=middle;whiteSpace=wrap;rounded=0;" parent="1" vertex="1">
          <mxGeometry x="457.5" y="-530" width="157.5" height="20" as="geometry" />
        </mxCell>
        <mxCell id="yqN4PnU-bIK_DVFbYcEo-388" value="" style="shape=link;html=1;rounded=0;strokeColor=default;labelBackgroundColor=light-dark(#a3a3a3, #ededed);" parent="1" source="yqN4PnU-bIK_DVFbYcEo-393" edge="1">
          <mxGeometry width="100" relative="1" as="geometry">
            <mxPoint x="480" y="-430" as="sourcePoint" />
            <mxPoint x="750" y="-430" as="targetPoint" />
          </mxGeometry>
        </mxCell>
        <mxCell id="yqN4PnU-bIK_DVFbYcEo-390" value="" style="shape=link;html=1;rounded=0;strokeColor=default;labelBackgroundColor=light-dark(#a3a3a3, #ededed);" parent="1" target="yqN4PnU-bIK_DVFbYcEo-389" edge="1">
          <mxGeometry width="100" relative="1" as="geometry">
            <mxPoint x="480" y="-430" as="sourcePoint" />
            <mxPoint x="750" y="-430" as="targetPoint" />
          </mxGeometry>
        </mxCell>
        <mxCell id="yqN4PnU-bIK_DVFbYcEo-389" value="" style="ellipse;whiteSpace=wrap;html=1;aspect=fixed;strokeColor=#82b366;fillColor=light-dark(#75bb4e, #1f2f1e);" parent="1" vertex="1">
          <mxGeometry x="470.62" y="-450" width="20" height="20" as="geometry" />
        </mxCell>
        <mxCell id="yqN4PnU-bIK_DVFbYcEo-392" value="" style="shape=link;html=1;rounded=0;strokeColor=default;labelBackgroundColor=light-dark(#a3a3a3, #ededed);" parent="1" source="yqN4PnU-bIK_DVFbYcEo-389" target="yqN4PnU-bIK_DVFbYcEo-391" edge="1">
          <mxGeometry width="100" relative="1" as="geometry">
            <mxPoint x="493" y="-430" as="sourcePoint" />
            <mxPoint x="750" y="-430" as="targetPoint" />
          </mxGeometry>
        </mxCell>
        <mxCell id="yqN4PnU-bIK_DVFbYcEo-391" value="" style="ellipse;whiteSpace=wrap;html=1;aspect=fixed;strokeColor=#82b366;fillColor=light-dark(#75bb4e, #1f2f1e);" parent="1" vertex="1">
          <mxGeometry x="526.87" y="-450" width="20" height="20" as="geometry" />
        </mxCell>
        <mxCell id="yqN4PnU-bIK_DVFbYcEo-394" value="" style="shape=link;html=1;rounded=0;strokeColor=default;labelBackgroundColor=light-dark(#a3a3a3, #ededed);" parent="1" source="yqN4PnU-bIK_DVFbYcEo-395" target="yqN4PnU-bIK_DVFbYcEo-393" edge="1">
          <mxGeometry width="100" relative="1" as="geometry">
            <mxPoint x="544" y="-430" as="sourcePoint" />
            <mxPoint x="750" y="-430" as="targetPoint" />
          </mxGeometry>
        </mxCell>
        <mxCell id="yqN4PnU-bIK_DVFbYcEo-393" value="" style="ellipse;whiteSpace=wrap;html=1;aspect=fixed;strokeColor=none;fillColor=light-dark(#582222, #1f2f1e);" parent="1" vertex="1">
          <mxGeometry x="743.1199999999999" y="-450" width="20" height="20" as="geometry" />
        </mxCell>
        <mxCell id="yqN4PnU-bIK_DVFbYcEo-396" value="" style="shape=link;html=1;rounded=0;strokeColor=default;labelBackgroundColor=light-dark(#a3a3a3, #ededed);" parent="1" source="yqN4PnU-bIK_DVFbYcEo-397" target="yqN4PnU-bIK_DVFbYcEo-395" edge="1">
          <mxGeometry width="100" relative="1" as="geometry">
            <mxPoint x="544" y="-430" as="sourcePoint" />
            <mxPoint x="733" y="-430" as="targetPoint" />
          </mxGeometry>
        </mxCell>
        <mxCell id="yqN4PnU-bIK_DVFbYcEo-395" value="" style="ellipse;whiteSpace=wrap;html=1;aspect=fixed;strokeColor=none;fillColor=light-dark(#552223, #1f2f1e);" parent="1" vertex="1">
          <mxGeometry x="660.62" y="-450" width="20" height="20" as="geometry" />
        </mxCell>
        <mxCell id="yqN4PnU-bIK_DVFbYcEo-398" value="" style="shape=link;html=1;rounded=0;strokeColor=default;labelBackgroundColor=light-dark(#a3a3a3, #ededed);" parent="1" source="yqN4PnU-bIK_DVFbYcEo-391" target="yqN4PnU-bIK_DVFbYcEo-397" edge="1">
          <mxGeometry width="100" relative="1" as="geometry">
            <mxPoint x="544" y="-430" as="sourcePoint" />
            <mxPoint x="663" y="-430" as="targetPoint" />
          </mxGeometry>
        </mxCell>
        <mxCell id="yqN4PnU-bIK_DVFbYcEo-397" value="" style="ellipse;whiteSpace=wrap;html=1;aspect=fixed;strokeColor=#82b366;fillColor=light-dark(#75bb4e, #1f2f1e);" parent="1" vertex="1">
          <mxGeometry x="590" y="-450" width="20" height="20" as="geometry" />
        </mxCell>
        <mxCell id="yqN4PnU-bIK_DVFbYcEo-409" value="&lt;font style=&quot;font-size: 10px;&quot;&gt;Ключевые вехи:&lt;/font&gt;" style="text;html=1;align=center;verticalAlign=middle;whiteSpace=wrap;rounded=0;" parent="1" vertex="1">
          <mxGeometry x="440" y="-430" width="112.5" height="20" as="geometry" />
        </mxCell>
        <mxCell id="yqN4PnU-bIK_DVFbYcEo-410" value="&lt;ul&gt;&lt;li&gt;&lt;font style=&quot;font-size: 9px;&quot;&gt;Value 1&lt;/font&gt;&lt;/li&gt;&lt;li&gt;&lt;font style=&quot;font-size: 9px;&quot;&gt;Value 2&lt;/font&gt;&lt;/li&gt;&lt;li&gt;&lt;font style=&quot;font-size: 9px;&quot;&gt;Value 3&lt;/font&gt;&lt;/li&gt;&lt;li&gt;&lt;font style=&quot;font-size: 9px;&quot;&gt;Value 4&lt;/font&gt;&lt;/li&gt;&lt;li&gt;&lt;font style=&quot;font-size: 9px;&quot;&gt;Value 5&lt;/font&gt;&lt;/li&gt;&lt;/ul&gt;" style="text;strokeColor=none;fillColor=none;html=1;whiteSpace=wrap;verticalAlign=middle;overflow=hidden;" parent="1" vertex="1">
          <mxGeometry x="435.63" y="-420" width="100" height="90" as="geometry" />
        </mxCell>
        <mxCell id="yqN4PnU-bIK_DVFbYcEo-412" value="" style="endArrow=none;html=1;rounded=0;" parent="1" edge="1">
          <mxGeometry width="50" height="50" relative="1" as="geometry">
            <mxPoint x="446.87" y="-328.72" as="sourcePoint" />
            <mxPoint x="776.9230769230769" y="-330" as="targetPoint" />
            <Array as="points">
              <mxPoint x="790" y="-330" />
            </Array>
          </mxGeometry>
        </mxCell>
        <mxCell id="yqN4PnU-bIK_DVFbYcEo-413" value="Документы" style="text;html=1;align=center;verticalAlign=middle;whiteSpace=wrap;rounded=0;" parent="1" vertex="1">
          <mxGeometry x="447.5" y="-320" width="85.75" height="20" as="geometry" />
        </mxCell>
        <mxCell id="yqN4PnU-bIK_DVFbYcEo-414" value="" style="rounded=1;whiteSpace=wrap;html=1;strokeColor=none;" parent="1" vertex="1">
          <mxGeometry x="534.38" y="-316" width="22.5" height="12" as="geometry" />
        </mxCell>
        <mxCell id="yqN4PnU-bIK_DVFbYcEo-415" value="" style="triangle;whiteSpace=wrap;html=1;rotation=90;fillColor=light-dark(#bababa, #ededed);strokeColor=none;" parent="1" vertex="1">
          <mxGeometry x="544.26" y="-315" width="3.25" height="10" as="geometry" />
        </mxCell>
        <mxCell id="yqN4PnU-bIK_DVFbYcEo-416" value="" style="rounded=1;whiteSpace=wrap;html=1;fillColor=#d5e8d4;strokeColor=#82b366;" parent="1" vertex="1">
          <mxGeometry x="460" y="-280" width="60" height="50" as="geometry" />
        </mxCell>
        <mxCell id="yqN4PnU-bIK_DVFbYcEo-417" value="" style="rounded=1;whiteSpace=wrap;html=1;fillColor=#d5e8d4;strokeColor=#82b366;" parent="1" vertex="1">
          <mxGeometry x="526.25" y="-280" width="60" height="50" as="geometry" />
        </mxCell>
        <mxCell id="yqN4PnU-bIK_DVFbYcEo-418" value="" style="rounded=1;whiteSpace=wrap;html=1;fillColor=#d5e8d4;strokeColor=#82b366;" parent="1" vertex="1">
          <mxGeometry x="592.5" y="-280" width="60" height="50" as="geometry" />
        </mxCell>
        <mxCell id="yqN4PnU-bIK_DVFbYcEo-419" value="" style="rounded=1;whiteSpace=wrap;html=1;fillColor=#d5e8d4;strokeColor=#82b366;" parent="1" vertex="1">
          <mxGeometry x="661.28" y="-280" width="60" height="50" as="geometry" />
        </mxCell>
        <mxCell id="yqN4PnU-bIK_DVFbYcEo-420" value="&lt;font style=&quot;font-size: 10px;&quot;&gt;Файл&lt;/font&gt;" style="text;html=1;align=center;verticalAlign=middle;whiteSpace=wrap;rounded=0;" parent="1" vertex="1">
          <mxGeometry x="445.87" y="-280" width="85.75" height="20" as="geometry" />
        </mxCell>
        <mxCell id="yqN4PnU-bIK_DVFbYcEo-421" value="&lt;font style=&quot;font-size: 10px;&quot;&gt;Файл&lt;/font&gt;" style="text;html=1;align=center;verticalAlign=middle;whiteSpace=wrap;rounded=0;" parent="1" vertex="1">
          <mxGeometry x="508.63" y="-280" width="85.75" height="20" as="geometry" />
        </mxCell>
        <mxCell id="yqN4PnU-bIK_DVFbYcEo-422" value="&lt;font style=&quot;font-size: 10px;&quot;&gt;Файл&lt;/font&gt;" style="text;html=1;align=center;verticalAlign=middle;whiteSpace=wrap;rounded=0;" parent="1" vertex="1">
          <mxGeometry x="576.87" y="-280" width="85.75" height="20" as="geometry" />
        </mxCell>
        <mxCell id="yqN4PnU-bIK_DVFbYcEo-423" value="&lt;font style=&quot;font-size: 10px;&quot;&gt;Файл&lt;/font&gt;" style="text;html=1;align=center;verticalAlign=middle;whiteSpace=wrap;rounded=0;" parent="1" vertex="1">
          <mxGeometry x="648.4100000000001" y="-280" width="85.75" height="20" as="geometry" />
        </mxCell>
        <mxCell id="yqN4PnU-bIK_DVFbYcEo-428" value="" style="shape=flexArrow;endArrow=classic;html=1;rounded=0;endWidth=7.5;endSize=3.5888888888888886;strokeColor=light-dark(#74bf4f, #ededed);fillColor=light-dark(#74bf4f, #ededed);" parent="1" edge="1">
          <mxGeometry width="50" height="50" relative="1" as="geometry">
            <mxPoint x="709.43" y="-260" as="sourcePoint" />
            <mxPoint x="709.4899999999999" y="-240" as="targetPoint" />
          </mxGeometry>
        </mxCell>
        <mxCell id="yqN4PnU-bIK_DVFbYcEo-429" value="" style="endArrow=none;html=1;rounded=0;" parent="1" edge="1">
          <mxGeometry width="50" height="50" relative="1" as="geometry">
            <mxPoint x="447.18" y="-218.72000000000003" as="sourcePoint" />
            <mxPoint x="777.2330769230769" y="-220" as="targetPoint" />
            <Array as="points">
              <mxPoint x="790.31" y="-220" />
            </Array>
          </mxGeometry>
        </mxCell>
        <mxCell id="yqN4PnU-bIK_DVFbYcEo-431" value="" style="shape=flexArrow;endArrow=classic;html=1;rounded=0;endWidth=7.5;endSize=3.5888888888888886;strokeColor=light-dark(#74bf4f, #ededed);fillColor=light-dark(#74bf4f, #ededed);" parent="1" edge="1">
          <mxGeometry width="50" height="50" relative="1" as="geometry">
            <mxPoint x="572.83" y="-260" as="sourcePoint" />
            <mxPoint x="572.89" y="-240" as="targetPoint" />
          </mxGeometry>
        </mxCell>
        <mxCell id="yqN4PnU-bIK_DVFbYcEo-432" value="" style="shape=flexArrow;endArrow=classic;html=1;rounded=0;endWidth=7.5;endSize=3.5888888888888886;strokeColor=light-dark(#74bf4f, #ededed);fillColor=light-dark(#74bf4f, #ededed);" parent="1" edge="1">
          <mxGeometry width="50" height="50" relative="1" as="geometry">
            <mxPoint x="505.5" y="-260" as="sourcePoint" />
            <mxPoint x="505.55999999999995" y="-240" as="targetPoint" />
          </mxGeometry>
        </mxCell>
        <mxCell id="yqN4PnU-bIK_DVFbYcEo-433" value="Комментарии" style="text;html=1;align=center;verticalAlign=middle;whiteSpace=wrap;rounded=0;" parent="1" vertex="1">
          <mxGeometry x="453.38" y="-210" width="85.75" height="20" as="geometry" />
        </mxCell>
        <mxCell id="yqN4PnU-bIK_DVFbYcEo-434" value="" style="rounded=1;whiteSpace=wrap;html=1;strokeColor=none;" parent="1" vertex="1">
          <mxGeometry x="540" y="-206" width="22.5" height="12" as="geometry" />
        </mxCell>
        <mxCell id="yqN4PnU-bIK_DVFbYcEo-435" value="" style="triangle;whiteSpace=wrap;html=1;rotation=90;fillColor=light-dark(#bababa, #ededed);strokeColor=none;" parent="1" vertex="1">
          <mxGeometry x="549.88" y="-205" width="3.25" height="10" as="geometry" />
        </mxCell>
        <mxCell id="yqN4PnU-bIK_DVFbYcEo-436" value="" style="rounded=0;whiteSpace=wrap;html=1;strokeColor=light-dark(#8c8c8c, #ededed);fillColor=light-dark(#b0b0b0, #ededed);" parent="1" vertex="1">
          <mxGeometry x="446.87" y="-40" width="353.13" height="20" as="geometry" />
        </mxCell>
        <mxCell id="yqN4PnU-bIK_DVFbYcEo-438" value="" style="rounded=1;whiteSpace=wrap;html=1;strokeColor=none;arcSize=25;" parent="1" vertex="1">
          <mxGeometry x="455" y="-180" width="325" height="40" as="geometry" />
        </mxCell>
        <mxCell id="yqN4PnU-bIK_DVFbYcEo-439" value="&lt;font style=&quot;font-size: 8px;&quot;&gt;Добавить комментарий...&lt;/font&gt;" style="text;html=1;align=center;verticalAlign=middle;whiteSpace=wrap;rounded=0;" parent="1" vertex="1">
          <mxGeometry x="457.5" y="-170" width="100" height="10" as="geometry" />
        </mxCell>
        <mxCell id="yqN4PnU-bIK_DVFbYcEo-440" value="" style="rounded=1;whiteSpace=wrap;html=1;fillColor=#d5e8d4;strokeColor=none;arcSize=32;" parent="1" vertex="1">
          <mxGeometry x="763.38" y="-155" width="10" height="10" as="geometry" />
        </mxCell>
        <mxCell id="yqN4PnU-bIK_DVFbYcEo-441" value="" style="verticalLabelPosition=bottom;verticalAlign=top;html=1;shape=mxgraph.basic.tick;fillColor=#6d8764;fontColor=#ffffff;strokeColor=none;" parent="1" vertex="1">
          <mxGeometry x="763.38" y="-155" width="10" height="10" as="geometry" />
        </mxCell>
        <mxCell id="yqN4PnU-bIK_DVFbYcEo-443" value="" style="ellipse;whiteSpace=wrap;html=1;aspect=fixed;fillColor=#d5e8d4;strokeColor=#82b366;" parent="1" vertex="1">
          <mxGeometry x="457.5" y="-130" width="35" height="35" as="geometry" />
        </mxCell>
        <mxCell id="yqN4PnU-bIK_DVFbYcEo-444" value="" style="ellipse;whiteSpace=wrap;html=1;aspect=fixed;fillColor=#d5e8d4;strokeColor=#82b366;" parent="1" vertex="1">
          <mxGeometry x="457.5" y="-87.5" width="35" height="35" as="geometry" />
        </mxCell>
        <mxCell id="yqN4PnU-bIK_DVFbYcEo-445" value="" style="rounded=1;whiteSpace=wrap;html=1;fillColor=light-dark(#fafafa, #1a1a1a);fontColor=#333333;strokeColor=none;" parent="1" vertex="1">
          <mxGeometry x="498.25" y="-115" width="152" height="20" as="geometry" />
        </mxCell>
        <mxCell id="yqN4PnU-bIK_DVFbYcEo-446" value="" style="rounded=1;whiteSpace=wrap;html=1;fillColor=light-dark(#fafafa, #1a1a1a);fontColor=#333333;strokeColor=none;" parent="1" vertex="1">
          <mxGeometry x="498.25" y="-72.5" width="261.75" height="20" as="geometry" />
        </mxCell>
        <mxCell id="yqN4PnU-bIK_DVFbYcEo-447" value="&lt;font style=&quot;font-size: 9px;&quot;&gt;ник&lt;/font&gt;" style="text;html=1;align=center;verticalAlign=middle;whiteSpace=wrap;rounded=0;" parent="1" vertex="1">
          <mxGeometry x="488.13" y="-87.5" width="35" height="15" as="geometry" />
        </mxCell>
        <mxCell id="yqN4PnU-bIK_DVFbYcEo-448" value="&lt;font style=&quot;font-size: 9px;&quot;&gt;ник&lt;/font&gt;" style="text;html=1;align=center;verticalAlign=middle;whiteSpace=wrap;rounded=0;" parent="1" vertex="1">
          <mxGeometry x="488.13" y="-130" width="35" height="15" as="geometry" />
        </mxCell>
        <mxCell id="yqN4PnU-bIK_DVFbYcEo-449" value="&lt;font style=&quot;font-size: 8px;&quot;&gt;Изменено:&lt;/font&gt;" style="text;html=1;align=center;verticalAlign=middle;whiteSpace=wrap;rounded=0;" parent="1" vertex="1">
          <mxGeometry x="453.38" y="-40" width="43.13" height="15" as="geometry" />
        </mxCell>
        <mxCell id="yqN4PnU-bIK_DVFbYcEo-450" value="&lt;font style=&quot;font-size: 8px;&quot;&gt;lorem ipsum 00-00-0000&lt;/font&gt;" style="text;html=1;align=center;verticalAlign=middle;whiteSpace=wrap;rounded=0;" parent="1" vertex="1">
          <mxGeometry x="478" y="-40" width="123.25" height="15" as="geometry" />
        </mxCell>
        <mxCell id="yqN4PnU-bIK_DVFbYcEo-452" value="" style="rounded=1;whiteSpace=wrap;html=1;fillColor=light-dark(#5a1c1c, #ededed);strokeColor=none;" parent="1" vertex="1">
          <mxGeometry x="723.69" y="-33.75" width="63.12" height="7.5" as="geometry" />
        </mxCell>
        <mxCell id="yqN4PnU-bIK_DVFbYcEo-453" value="" style="rounded=1;whiteSpace=wrap;html=1;fillColor=light-dark(#74c350, #1f2f1e);strokeColor=#82b366;" parent="1" vertex="1">
          <mxGeometry x="680" y="-33.75" width="38.75" height="7.5" as="geometry" />
        </mxCell>
        <mxCell id="yqN4PnU-bIK_DVFbYcEo-454" value="" style="rounded=1;whiteSpace=wrap;html=1;fillColor=light-dark(#74c350, #ededed);strokeColor=none;" parent="1" vertex="1">
          <mxGeometry x="630" y="-33.75" width="45.62" height="7.5" as="geometry" />
        </mxCell>
        <mxCell id="yqN4PnU-bIK_DVFbYcEo-455" value="&lt;font style=&quot;font-size: 5px;&quot;&gt;Сохранить&lt;/font&gt;" style="text;html=1;align=left;verticalAlign=middle;whiteSpace=wrap;rounded=0;fontColor=#FFFFFF;" parent="1" vertex="1">
          <mxGeometry x="685.69" y="-35.62" width="27.38" height="6.25" as="geometry" />
        </mxCell>
        <mxCell id="yqN4PnU-bIK_DVFbYcEo-456" value="&lt;font style=&quot;font-size: 5px;&quot;&gt;Редактировать&lt;/font&gt;" style="text;html=1;align=left;verticalAlign=middle;whiteSpace=wrap;rounded=0;fontColor=#FFFFFF;" parent="1" vertex="1">
          <mxGeometry x="635.24" y="-39.38" width="27.38" height="14.38" as="geometry" />
        </mxCell>
        <mxCell id="yqN4PnU-bIK_DVFbYcEo-458" value="&lt;font style=&quot;font-size: 5px;&quot;&gt;Закрыть проект&lt;/font&gt;" style="text;html=1;align=left;verticalAlign=middle;whiteSpace=wrap;rounded=0;fontColor=#FFFFFF;" parent="1" vertex="1">
          <mxGeometry x="735.74" y="-35.62" width="54.26" height="6.25" as="geometry" />
        </mxCell>
        <mxCell id="yqN4PnU-bIK_DVFbYcEo-459" value="" style="rounded=0;whiteSpace=wrap;html=1;strokeColor=light-dark(#d7d7d7, #ededed);fillColor=light-dark(#e3e3e3, #ededed);" parent="1" vertex="1">
          <mxGeometry x="792.5" y="-800" width="8.75" height="780" as="geometry" />
        </mxCell>
        <mxCell id="yqN4PnU-bIK_DVFbYcEo-460" value="" style="rounded=0;whiteSpace=wrap;html=1;strokeColor=none;fillColor=light-dark(#FFFFFF,#EDEDED);" parent="1" vertex="1">
          <mxGeometry x="792.5" y="-780" width="8.75" height="40" as="geometry" />
        </mxCell>
        <mxCell id="yqN4PnU-bIK_DVFbYcEo-461" value="" style="shape=flexArrow;endArrow=classic;html=1;rounded=0;entryX=1;entryY=0.5;entryDx=0;entryDy=0;endWidth=8.571428571428571;endSize=4.405714285714286;fillColor=light-dark(#75bb4e, #ededed);strokeColor=none;" parent="1" target="yqN4PnU-bIK_DVFbYcEo-352" edge="1">
          <mxGeometry width="50" height="50" relative="1" as="geometry">
            <mxPoint x="470" y="-755" as="sourcePoint" />
            <mxPoint x="397.5" y="-868.12" as="targetPoint" />
          </mxGeometry>
        </mxCell>
        <mxCell id="yqN4PnU-bIK_DVFbYcEo-462" value="" style="shape=flexArrow;endArrow=classic;html=1;rounded=0;entryX=0.957;entryY=0;entryDx=0;entryDy=0;endWidth=8.571428571428571;endSize=4.405714285714286;fillColor=light-dark(#75bb4e, #ededed);strokeColor=none;entryPerimeter=0;exitX=0;exitY=0;exitDx=3.915492957746551;exitDy=8.042253521126725;exitPerimeter=0;" parent="1" source="yqN4PnU-bIK_DVFbYcEo-340" target="tw06mkd3tqOahKshNa1v-138" edge="1">
          <mxGeometry width="50" height="50" relative="1" as="geometry">
            <mxPoint x="785" y="-830" as="sourcePoint" />
            <mxPoint x="723.69" y="-814.5" as="targetPoint" />
          </mxGeometry>
        </mxCell>
        <mxCell id="yqN4PnU-bIK_DVFbYcEo-463" value="" style="shape=flexArrow;endArrow=classic;html=1;rounded=0;endWidth=8.571428571428571;endSize=4.405714285714286;fillColor=light-dark(#75bb4e, #ededed);strokeColor=none;exitX=1;exitY=1;exitDx=0;exitDy=0;" parent="1" source="yqN4PnU-bIK_DVFbYcEo-333" edge="1">
          <mxGeometry width="50" height="50" relative="1" as="geometry">
            <mxPoint x="659.62" y="-837.5" as="sourcePoint" />
            <mxPoint x="661" y="-800" as="targetPoint" />
          </mxGeometry>
        </mxCell>
        <mxCell id="yqN4PnU-bIK_DVFbYcEo-469" value="" style="rounded=0;whiteSpace=wrap;html=1;strokeColor=none;fillColor=light-dark(#FFFFFF,#EDEDED);rotation=90;" parent="1" vertex="1">
          <mxGeometry x="62.31" y="-903.75" width="8.75" height="40" as="geometry" />
        </mxCell>
        <mxCell id="yqN4PnU-bIK_DVFbYcEo-378" value="" style="shape=flexArrow;endArrow=classic;html=1;rounded=0;exitX=0.5;exitY=0;exitDx=0;exitDy=0;fillColor=light-dark(#ededed, #ededed);" parent="1" source="yqN4PnU-bIK_DVFbYcEo-346" edge="1">
          <mxGeometry width="50" height="50" relative="1" as="geometry">
            <mxPoint x="280" y="-810" as="sourcePoint" />
            <mxPoint x="274" y="-880" as="targetPoint" />
          </mxGeometry>
        </mxCell>
        <mxCell id="4azYe43nJDymcmueEYW_-1" value="" style="rounded=0;whiteSpace=wrap;html=1;fillColor=#d5e8d4;strokeColor=#82b366;" vertex="1" parent="1">
          <mxGeometry x="294" y="-1100" width="106" height="210" as="geometry" />
        </mxCell>
        <mxCell id="yqN4PnU-bIK_DVFbYcEo-340" value="" style="shape=cross;whiteSpace=wrap;html=1;size=0.2169014084506898;strokeColor=none;" parent="1" vertex="1">
          <mxGeometry x="780" y="-848.12" width="10" height="10" as="geometry" />
        </mxCell>
        <mxCell id="4azYe43nJDymcmueEYW_-3" value="&lt;span style=&quot;font-size: 20px;&quot;&gt;Карточка проекта&lt;/span&gt;" style="text;html=1;align=center;verticalAlign=middle;whiteSpace=wrap;rounded=0;" vertex="1" parent="1">
          <mxGeometry x="415.24" y="-830" width="220" height="30" as="geometry" />
        </mxCell>
        <mxCell id="4azYe43nJDymcmueEYW_-6" value="" style="endArrow=none;html=1;rounded=1;curved=0;fillColor=#f5f5f5;strokeColor=#666666;" edge="1" parent="1">
          <mxGeometry width="50" height="50" relative="1" as="geometry">
            <mxPoint x="430" y="-1010" as="sourcePoint" />
            <mxPoint x="581.25" y="-1020" as="targetPoint" />
            <Array as="points">
              <mxPoint x="581" y="-1010" />
            </Array>
          </mxGeometry>
        </mxCell>
        <mxCell id="4azYe43nJDymcmueEYW_-7" value="" style="endArrow=none;html=1;rounded=1;curved=0;fillColor=#f5f5f5;strokeColor=#666666;" edge="1" parent="1">
          <mxGeometry width="50" height="50" relative="1" as="geometry">
            <mxPoint x="430" y="-1010" as="sourcePoint" />
            <mxPoint x="491.25" y="-1020" as="targetPoint" />
            <Array as="points">
              <mxPoint x="491" y="-1010" />
            </Array>
          </mxGeometry>
        </mxCell>
        <mxCell id="4azYe43nJDymcmueEYW_-10" value="&lt;font style=&quot;font-size: 7px;&quot;&gt;Логотип&lt;/font&gt;" style="text;html=1;align=left;verticalAlign=middle;whiteSpace=wrap;rounded=0;fontColor=#FFFFFF;" vertex="1" parent="1">
          <mxGeometry x="442.63" y="-1059.38" width="32.5" height="17.5" as="geometry" />
        </mxCell>
        <mxCell id="4azYe43nJDymcmueEYW_-11" value="" style="endArrow=none;html=1;rounded=0;exitX=0.006;exitY=0.134;exitDx=0;exitDy=0;exitPerimeter=0;entryX=1.006;entryY=0.134;entryDx=0;entryDy=0;entryPerimeter=0;" edge="1" parent="1">
          <mxGeometry width="50" height="50" relative="1" as="geometry">
            <mxPoint x="40.05999999999997" y="-740.5740000000001" as="sourcePoint" />
            <mxPoint x="230.00999999999996" y="-740.5740000000001" as="targetPoint" />
          </mxGeometry>
        </mxCell>
        <mxCell id="yqN4PnU-bIK_DVFbYcEo-375" value="" style="rounded=0;whiteSpace=wrap;html=1;fillColor=none;" parent="1" vertex="1">
          <mxGeometry x="140.01" y="-793.5" width="90" height="284" as="geometry" />
        </mxCell>
        <mxCell id="4azYe43nJDymcmueEYW_-12" value="&lt;font style=&quot;font-size: 10px;&quot;&gt;ПРОВЕРКА&lt;/font&gt;" style="text;html=1;align=center;verticalAlign=middle;whiteSpace=wrap;rounded=0;" vertex="1" parent="1">
          <mxGeometry x="37.5" y="-1100" width="58.25" height="20" as="geometry" />
        </mxCell>
        <mxCell id="4azYe43nJDymcmueEYW_-17" value="&lt;ul&gt;&lt;li&gt;&lt;font style=&quot;font-size: 8px;&quot;&gt;Исполнитель:&lt;/font&gt;&lt;/li&gt;&lt;li&gt;&lt;font style=&quot;font-size: 8px;&quot;&gt;Описание:&lt;/font&gt;&lt;/li&gt;&lt;li&gt;&lt;font style=&quot;font-size: 8px;&quot;&gt;Дата начала:&lt;/font&gt;&lt;/li&gt;&lt;li&gt;&lt;font style=&quot;font-size: 8px;&quot;&gt;Дата окончания:&lt;/font&gt;&lt;/li&gt;&lt;li&gt;&lt;font style=&quot;font-size: 8px;&quot;&gt;Документация&lt;/font&gt;&lt;/li&gt;&lt;/ul&gt;" style="text;strokeColor=none;fillColor=none;html=1;whiteSpace=wrap;verticalAlign=middle;overflow=hidden;" vertex="1" parent="1">
          <mxGeometry x="270.76" y="-1115" width="127.12" height="120" as="geometry" />
        </mxCell>
        <mxCell id="4azYe43nJDymcmueEYW_-18" value="" style="rounded=1;whiteSpace=wrap;html=1;fillColor=light-dark(#9ec49c, #1f2f1e);strokeColor=#82b366;" vertex="1" parent="1">
          <mxGeometry x="300" y="-1012.5" width="30" height="30" as="geometry" />
        </mxCell>
        <mxCell id="4azYe43nJDymcmueEYW_-19" value="&lt;font style=&quot;font-size: 7px;&quot;&gt;Файл&lt;/font&gt;" style="text;html=1;align=center;verticalAlign=middle;whiteSpace=wrap;rounded=0;" vertex="1" parent="1">
          <mxGeometry x="299.5" y="-1010" width="30" height="10" as="geometry" />
        </mxCell>
        <mxCell id="4azYe43nJDymcmueEYW_-20" value="" style="shape=flexArrow;endArrow=classic;html=1;rounded=0;endWidth=4.1610738255033555;endSize=1.0671140939597314;strokeColor=none;fillColor=light-dark(#76b84d, #ededed);width=4.026845637583892;" edge="1" parent="1">
          <mxGeometry width="50" height="50" relative="1" as="geometry">
            <mxPoint x="320.13" y="-994.37" as="sourcePoint" />
            <mxPoint x="320" y="-985.62" as="targetPoint" />
            <Array as="points" />
          </mxGeometry>
        </mxCell>
        <mxCell id="yqN4PnU-bIK_DVFbYcEo-468" value="" style="rounded=0;whiteSpace=wrap;html=1;strokeColor=light-dark(#d7d7d7, #ededed);fillColor=light-dark(#e3e3e3, #ededed);rotation=-90;" parent="1" vertex="1">
          <mxGeometry x="216.74" y="-1071.24" width="12.39" height="371.33" as="geometry" />
        </mxCell>
        <mxCell id="yqN4PnU-bIK_DVFbYcEo-466" value="" style="rounded=0;whiteSpace=wrap;html=1;strokeColor=light-dark(#d7d7d7, #ededed);fillColor=light-dark(#e3e3e3, #ededed);" parent="1" vertex="1">
          <mxGeometry x="400" y="-1100" width="11.25" height="220" as="geometry" />
        </mxCell>
        <mxCell id="yqN4PnU-bIK_DVFbYcEo-467" value="" style="rounded=0;whiteSpace=wrap;html=1;strokeColor=none;fillColor=light-dark(#FFFFFF,#EDEDED);" parent="1" vertex="1">
          <mxGeometry x="400" y="-1080" width="11.25" height="40" as="geometry" />
        </mxCell>
        <mxCell id="4azYe43nJDymcmueEYW_-21" value="" style="rounded=1;whiteSpace=wrap;html=1;arcSize=50;fillColor=light-dark(#74bf4f, #ededed);strokeColor=none;" vertex="1" parent="1">
          <mxGeometry x="303.06" y="-908.75" width="87.88" height="10" as="geometry" />
        </mxCell>
        <mxCell id="4azYe43nJDymcmueEYW_-22" value="&lt;font style=&quot;font-size: 7px;&quot;&gt;Загрузить данные&lt;/font&gt;" style="text;html=1;align=left;verticalAlign=middle;whiteSpace=wrap;rounded=0;fontColor=#FFFFFF;" vertex="1" parent="1">
          <mxGeometry x="315.75" y="-913.12" width="62.5" height="15" as="geometry" />
        </mxCell>
        <mxCell id="4azYe43nJDymcmueEYW_-23" value="" style="endArrow=none;html=1;rounded=0;exitX=0.998;exitY=0.189;exitDx=0;exitDy=0;exitPerimeter=0;entryX=1.006;entryY=0.189;entryDx=0;entryDy=0;entryPerimeter=0;" edge="1" parent="1" source="yqN4PnU-bIK_DVFbYcEo-375" target="yqN4PnU-bIK_DVFbYcEo-376">
          <mxGeometry width="50" height="50" relative="1" as="geometry">
            <mxPoint x="230" y="-740" as="sourcePoint" />
            <mxPoint x="412.11999999999995" y="-740.004" as="targetPoint" />
          </mxGeometry>
        </mxCell>
        <mxCell id="yqN4PnU-bIK_DVFbYcEo-376" value="" style="rounded=0;whiteSpace=wrap;html=1;fillColor=none;" parent="1" vertex="1">
          <mxGeometry x="320" y="-793.5" width="90" height="284" as="geometry" />
        </mxCell>
        <mxCell id="yqN4PnU-bIK_DVFbYcEo-351" value="" style="rounded=0;whiteSpace=wrap;html=1;strokeColor=light-dark(#d7d7d7, #ededed);fillColor=light-dark(#e3e3e3, #ededed);" parent="1" vertex="1">
          <mxGeometry x="410" y="-793.5" width="8.75" height="283.75" as="geometry" />
        </mxCell>
        <mxCell id="yqN4PnU-bIK_DVFbYcEo-352" value="" style="rounded=0;whiteSpace=wrap;html=1;strokeColor=none;fillColor=light-dark(#FFFFFF,#EDEDED);" parent="1" vertex="1">
          <mxGeometry x="411.25" y="-773.75" width="8.75" height="40" as="geometry" />
        </mxCell>
        <mxCell id="4azYe43nJDymcmueEYW_-24" value="&lt;font style=&quot;font-size: 5px;&quot;&gt;Завершен&lt;/font&gt;" style="text;html=1;align=left;verticalAlign=middle;whiteSpace=wrap;rounded=0;fontColor=#FFFFFF;" vertex="1" parent="1">
          <mxGeometry x="633.12" y="-910" width="26.93" height="6.25" as="geometry" />
        </mxCell>
        <mxCell id="4azYe43nJDymcmueEYW_-26" value="&lt;font style=&quot;font-size: 5px;&quot;&gt;Завершен&lt;/font&gt;" style="text;html=1;align=left;verticalAlign=middle;whiteSpace=wrap;rounded=0;fontColor=#FFFFFF;" vertex="1" parent="1">
          <mxGeometry x="723.12" y="-910" width="26.93" height="6.25" as="geometry" />
        </mxCell>
        <mxCell id="4azYe43nJDymcmueEYW_-27" value="&lt;font style=&quot;font-size: 5px;&quot;&gt;На проверке&lt;/font&gt;" style="text;html=1;align=left;verticalAlign=middle;whiteSpace=wrap;rounded=0;fontColor=#FFFFFF;" vertex="1" parent="1">
          <mxGeometry x="633.12" y="-982.5" width="36.88" height="6.25" as="geometry" />
        </mxCell>
        <mxCell id="4azYe43nJDymcmueEYW_-28" value="" style="rounded=1;whiteSpace=wrap;html=1;strokeColor=none;fillColor=light-dark(#a95151, #1f2f1e);arcSize=50;" vertex="1" parent="1">
          <mxGeometry x="723.1199999999999" y="-981.25" width="37.45" height="8.75" as="geometry" />
        </mxCell>
        <mxCell id="4azYe43nJDymcmueEYW_-29" value="&lt;font style=&quot;font-size: 5px;&quot;&gt;На проверке&lt;/font&gt;" style="text;html=1;align=left;verticalAlign=middle;whiteSpace=wrap;rounded=0;fontColor=#FFFFFF;" vertex="1" parent="1">
          <mxGeometry x="726.24" y="-982.5" width="36.88" height="6.25" as="geometry" />
        </mxCell>
        <mxCell id="4azYe43nJDymcmueEYW_-30" value="&lt;font style=&quot;font-size: 5px;&quot;&gt;На утверждении&lt;/font&gt;" style="text;html=1;align=center;verticalAlign=middle;whiteSpace=wrap;rounded=0;" vertex="1" parent="1">
          <mxGeometry x="543.84" y="-984.38" width="45.82" height="10" as="geometry" />
        </mxCell>
        <mxCell id="4azYe43nJDymcmueEYW_-33" value="&lt;font style=&quot;font-size: 5px;&quot;&gt;Требует доработки&lt;/font&gt;" style="text;html=1;align=center;verticalAlign=middle;whiteSpace=wrap;rounded=0;" vertex="1" parent="1">
          <mxGeometry x="450.5" y="-923.75" width="45.82" height="10" as="geometry" />
        </mxCell>
        <mxCell id="4azYe43nJDymcmueEYW_-34" value="&lt;font style=&quot;font-size: 5px;&quot;&gt;Заморожен&lt;/font&gt;" style="text;html=1;align=center;verticalAlign=middle;whiteSpace=wrap;rounded=0;" vertex="1" parent="1">
          <mxGeometry x="540.5" y="-913.12" width="29.5" height="10" as="geometry" />
        </mxCell>
        <mxCell id="4azYe43nJDymcmueEYW_-35" value="&lt;font style=&quot;font-size: 5px;&quot;&gt;Заморожен&lt;/font&gt;" style="text;html=1;align=center;verticalAlign=middle;whiteSpace=wrap;rounded=0;" vertex="1" parent="1">
          <mxGeometry x="440" y="-851.87" width="45.82" height="10" as="geometry" />
        </mxCell>
        <mxCell id="4azYe43nJDymcmueEYW_-36" value="&lt;font style=&quot;font-size: 5px;&quot;&gt;Создан&lt;/font&gt;" style="text;html=1;align=center;verticalAlign=middle;whiteSpace=wrap;rounded=0;" vertex="1" parent="1">
          <mxGeometry x="454.18" y="-972.5" width="20.13" height="10" as="geometry" />
        </mxCell>
        <mxCell id="4azYe43nJDymcmueEYW_-37" value="&lt;font style=&quot;font-size: 5px;&quot;&gt;Договорной отдел&lt;/font&gt;" style="text;html=1;align=center;verticalAlign=middle;whiteSpace=wrap;rounded=0;" vertex="1" parent="1">
          <mxGeometry x="478.34000000000003" y="-972.5" width="45.82" height="10" as="geometry" />
        </mxCell>
        <mxCell id="4azYe43nJDymcmueEYW_-38" value="&lt;font style=&quot;font-size: 5px;&quot;&gt;Договорной отдел&lt;/font&gt;" style="text;html=1;align=center;verticalAlign=middle;whiteSpace=wrap;rounded=0;" vertex="1" parent="1">
          <mxGeometry x="478.66" y="-851.87" width="45.82" height="10" as="geometry" />
        </mxCell>
        <mxCell id="4azYe43nJDymcmueEYW_-39" value="&lt;font style=&quot;font-size: 5px;&quot;&gt;Договорной отдел&lt;/font&gt;" style="text;html=1;align=center;verticalAlign=middle;whiteSpace=wrap;rounded=0;" vertex="1" parent="1">
          <mxGeometry x="574.1800000000001" y="-913.12" width="45.82" height="10" as="geometry" />
        </mxCell>
        <mxCell id="4azYe43nJDymcmueEYW_-41" value="&lt;span style=&quot;font-size: 5px;&quot;&gt;Отдел закупок&lt;/span&gt;" style="text;html=1;align=center;verticalAlign=middle;whiteSpace=wrap;rounded=0;" vertex="1" parent="1">
          <mxGeometry x="462.72" y="-911.87" width="45.82" height="10" as="geometry" />
        </mxCell>
        <mxCell id="4azYe43nJDymcmueEYW_-42" value="&lt;span style=&quot;font-size: 5px;&quot;&gt;Отдел закупок&lt;/span&gt;" style="text;html=1;align=center;verticalAlign=middle;whiteSpace=wrap;rounded=0;" vertex="1" parent="1">
          <mxGeometry x="556.25" y="-972.5" width="45.82" height="10" as="geometry" />
        </mxCell>
        <mxCell id="4azYe43nJDymcmueEYW_-43" value="&lt;span style=&quot;font-size: 5px;&quot;&gt;Отдел закупок&lt;/span&gt;" style="text;html=1;align=center;verticalAlign=middle;whiteSpace=wrap;rounded=0;" vertex="1" parent="1">
          <mxGeometry x="752.5" y="-913.12" width="45.82" height="10" as="geometry" />
        </mxCell>
        <mxCell id="4azYe43nJDymcmueEYW_-44" value="&lt;span style=&quot;font-size: 5px;&quot;&gt;Отдел закупок&lt;/span&gt;" style="text;html=1;align=center;verticalAlign=middle;whiteSpace=wrap;rounded=0;" vertex="1" parent="1">
          <mxGeometry x="732.34" y="-972.5" width="45.82" height="10" as="geometry" />
        </mxCell>
        <mxCell id="4azYe43nJDymcmueEYW_-45" value="&lt;span style=&quot;font-size: 5px;&quot;&gt;Отдел СММ&lt;/span&gt;" style="text;html=1;align=center;verticalAlign=middle;whiteSpace=wrap;rounded=0;" vertex="1" parent="1">
          <mxGeometry x="661.28" y="-913.12" width="45.82" height="10" as="geometry" />
        </mxCell>
        <mxCell id="4azYe43nJDymcmueEYW_-46" value="&lt;span style=&quot;font-size: 5px;&quot;&gt;Отдел СММ&lt;/span&gt;" style="text;html=1;align=center;verticalAlign=middle;whiteSpace=wrap;rounded=0;" vertex="1" parent="1">
          <mxGeometry x="642.51" y="-972.5" width="45.82" height="10" as="geometry" />
        </mxCell>
        <mxCell id="4azYe43nJDymcmueEYW_-47" value="&lt;font style=&quot;font-size: 7px;&quot;&gt;Корпоративные&lt;/font&gt;" style="text;html=1;align=center;verticalAlign=middle;whiteSpace=wrap;rounded=0;" vertex="1" parent="1">
          <mxGeometry x="558.43" y="-1031.25" width="45.82" height="10" as="geometry" />
        </mxCell>
        <mxCell id="4azYe43nJDymcmueEYW_-8" value="&lt;font style=&quot;font-size: 6px;&quot;&gt;выбор сортировки по типу&lt;/font&gt;" style="text;html=1;align=center;verticalAlign=middle;whiteSpace=wrap;rounded=0;" vertex="1" parent="1">
          <mxGeometry x="406.75" y="-1031.25" width="30" height="30" as="geometry" />
        </mxCell>
        <mxCell id="yqN4PnU-bIK_DVFbYcEo-355" value="&lt;font style=&quot;font-size: 10px;&quot;&gt;РАЗРАБОТКА&lt;/font&gt;" style="text;html=1;align=center;verticalAlign=middle;whiteSpace=wrap;rounded=0;" parent="1" vertex="1">
          <mxGeometry x="143.38" y="-773.75" width="85.75" height="20" as="geometry" />
        </mxCell>
        <mxCell id="yqN4PnU-bIK_DVFbYcEo-353" value="&lt;font style=&quot;font-size: 10px;&quot;&gt;ГОТОВО&lt;/font&gt;" style="text;html=1;align=center;verticalAlign=middle;whiteSpace=wrap;rounded=0;" parent="1" vertex="1">
          <mxGeometry x="324.25" y="-773.75" width="85.75" height="20" as="geometry" />
        </mxCell>
        <mxCell id="4azYe43nJDymcmueEYW_-50" value="" style="shape=flexArrow;endArrow=classic;html=1;rounded=0;endWidth=7.5;endSize=3.5888888888888886;strokeColor=light-dark(#74bf4f, #ededed);fillColor=light-dark(#74bf4f, #ededed);" edge="1" parent="1">
          <mxGeometry width="50" height="50" relative="1" as="geometry">
            <mxPoint x="642.51" y="-260" as="sourcePoint" />
            <mxPoint x="642.5699999999999" y="-240" as="targetPoint" />
          </mxGeometry>
        </mxCell>
        <mxCell id="4azYe43nJDymcmueEYW_-51" value="" style="rounded=1;whiteSpace=wrap;html=1;fillColor=#d5e8d4;strokeColor=#82b366;" vertex="1" parent="1">
          <mxGeometry x="726.81" y="-280" width="60" height="50" as="geometry" />
        </mxCell>
        <mxCell id="4azYe43nJDymcmueEYW_-52" value="&lt;font style=&quot;font-size: 10px;&quot;&gt;Добавить документ&lt;/font&gt;" style="text;html=1;align=center;verticalAlign=middle;whiteSpace=wrap;rounded=0;" vertex="1" parent="1">
          <mxGeometry x="726.8100000000001" y="-280" width="60" height="30" as="geometry" />
        </mxCell>
        <mxCell id="4azYe43nJDymcmueEYW_-53" value="&lt;font style=&quot;font-size: 10px;&quot;&gt;Тип проекта:&lt;/font&gt;" style="text;html=1;align=center;verticalAlign=middle;whiteSpace=wrap;rounded=0;" vertex="1" parent="1">
          <mxGeometry x="454.27000000000004" y="-710" width="68.96" height="20" as="geometry" />
        </mxCell>
        <mxCell id="4azYe43nJDymcmueEYW_-54" value="&lt;font style=&quot;font-size: 10px;&quot;&gt;Руководитель:&lt;/font&gt;" style="text;html=1;align=center;verticalAlign=middle;whiteSpace=wrap;rounded=0;" vertex="1" parent="1">
          <mxGeometry x="445.87" y="-670" width="85.75" height="20" as="geometry" />
        </mxCell>
      </root>
    </mxGraphModel>
  </diagram>
</mxfile>
